<svg width="264" height="45" viewBox="0 0 264 45" fill="none" xmlns="http://www.w3.org/2000/svg">
<path fill-rule="evenodd" clip-rule="evenodd" d="M17.0748 3.10792C17.0101 3.14874 16.8487 3.27977 16.63 3.63433C16.4753 3.88502 16.4684 4.00731 16.468 4.0237V4.0237C16.4674 4.02655 16.464 4.04216 16.5002 4.09648C16.6261 4.28555 17.0121 4.60434 17.8395 4.94712C18.3591 5.16239 18.9463 5.34563 19.5543 5.50286C19.0893 4.86505 18.6318 4.29507 18.1892 3.85231C17.5612 3.22414 17.2046 3.1001 17.1071 3.0918V3.0918C17.1054 3.09167 17.1038 3.09194 17.1023 3.09262C17.0967 3.09516 17.0876 3.09982 17.0748 3.10792ZM17.109 3.08995L17.1079 3.09028ZM23.3941 5.62637C23.6808 6.05458 23.9416 6.44411 24.2171 6.83025C24.578 7.33589 24.601 8.00844 24.2756 8.5376C23.9502 9.06675 23.3396 9.34965 22.7256 9.25579C21.2886 9.03612 18.6633 8.6342 16.6564 7.80277C15.6807 7.39854 14.5783 6.78707 13.9275 5.80977C13.5778 5.28474 13.3609 4.65584 13.3779 3.94932C13.3945 3.25787 13.6321 2.60668 13.9991 2.01166C14.7726 0.757543 15.9018 -0.113145 17.3696 0.0119409C18.6161 0.118172 19.6434 0.934961 20.3752 1.66694C21.1563 2.4483 21.8879 3.43157 22.5219 4.34245C22.8539 4.81957 23.1346 5.23882 23.3941 5.62637Z" fill="#1A72F2"/>
<path fill-rule="evenodd" clip-rule="evenodd" d="M29.5815 3.10792C29.6461 3.14874 29.8076 3.27977 30.0263 3.63433C30.1809 3.88502 30.1878 4.00731 30.1882 4.0237V4.0237C30.1889 4.02655 30.1922 4.04216 30.156 4.09648C30.0301 4.28555 29.6442 4.60434 28.8168 4.94712C28.2972 5.16239 27.7099 5.34563 27.102 5.50286C27.567 4.86505 28.0244 4.29507 28.4671 3.85231C29.0951 3.22414 29.4517 3.1001 29.5492 3.0918V3.0918C29.5508 3.09167 29.5525 3.09194 29.554 3.09262C29.5596 3.09516 29.5687 3.09982 29.5815 3.10792ZM29.5472 3.08995L29.5483 3.09028ZM23.2622 5.62637C22.9755 6.05458 22.7147 6.44411 22.4391 6.83025C22.0783 7.33589 22.0552 8.00844 22.3806 8.5376C22.706 9.06675 23.3166 9.34965 23.9307 9.25579C25.3677 9.03612 27.993 8.6342 29.9999 7.80277C30.9756 7.39854 32.078 6.78707 32.7288 5.80977C33.0784 5.28474 33.2954 4.65584 33.2784 3.94932C33.2617 3.25787 33.0241 2.60668 32.6571 2.01166C31.8836 0.757543 30.7544 -0.113145 29.2867 0.0119409C28.0402 0.118172 27.0128 0.934961 26.2811 1.66694C25.4999 2.4483 24.7683 3.43157 24.1344 4.34245C23.8023 4.81957 23.5216 5.23882 23.2622 5.62637Z" fill="#1A72F2"/>
<path fill-rule="evenodd" clip-rule="evenodd" d="M0 18.1004C0 15.4941 1.89728 13.2757 4.47199 12.8715C17.0659 10.8944 29.8912 10.8944 42.4852 12.8715C45.0599 13.2757 46.9571 15.4941 46.9571 18.1004V37.8829C46.9571 40.4891 45.0599 42.7075 42.4852 43.1117C37.1552 43.9485 31.7837 44.4311 26.4059 44.5596C28.0012 40.1682 29.298 35.6731 30.2873 31.1051L30.5436 29.9215C31.053 27.5697 28.9612 25.4779 26.6093 25.9872L25.4257 26.2436C20.1374 27.3888 14.9468 28.9464 9.90162 30.9019C7.96143 31.6539 7.43465 34.1521 8.90601 35.6234L10.1639 36.8813C11.4162 38.7327 11.2227 41.2704 9.58337 42.9098L8.7829 43.7103C7.34339 43.5364 5.90619 43.3369 4.47199 43.1117C1.89728 42.7075 0 40.4891 0 37.8829V18.1004ZM35.4056 27.5405C35.9363 21.8084 36.3662 21.386 42.0955 20.8448C36.3672 20.3177 35.9368 19.8973 35.4056 14.1637C34.8794 19.8973 34.448 20.3182 28.7188 20.8448C34.4481 21.3859 34.8794 21.8082 35.4056 27.5405Z" fill="url(#paint0_linear_3752_15106)"/>
<path d="M60.3275 20.9578C60.4602 19.9183 60.8141 18.9119 61.3892 17.9387C61.9863 16.9656 62.8711 16.1693 64.0433 15.55C65.2377 14.9086 66.7306 14.5879 68.5222 14.5879C71.0878 14.5879 73.0674 15.1187 74.4608 16.1804C75.8764 17.2199 76.5841 18.7129 76.5841 20.6592C76.5841 22.0306 76.2081 23.2139 75.4561 24.2092C74.7262 25.1824 73.7309 25.8238 72.4702 26.1334C73.9079 26.4652 75.0248 27.0956 75.8211 28.0245C76.6173 28.9313 77.0154 30.1368 77.0154 31.6408C77.0154 33.8304 76.2855 35.5335 74.8258 36.75C73.366 37.9665 71.2648 38.5747 68.5222 38.5747C66.0007 38.5747 63.9659 37.9665 62.4176 36.75C60.8915 35.5335 59.9294 33.8747 59.5312 31.7735L63.3134 30.7782C63.6452 32.1716 64.2313 33.2333 65.0718 33.9632C65.9123 34.693 66.996 35.058 68.3231 35.058C69.7387 35.058 70.8335 34.7483 71.6076 34.129C72.3817 33.5097 72.7688 32.625 72.7688 31.4749C72.7688 28.9313 71.0436 27.6596 67.5932 27.6596H65.105V24.74H67.5932C69.1415 24.74 70.3248 24.4746 71.1431 23.9438C71.9615 23.4129 72.3707 22.5061 72.3707 21.2233C72.3707 20.2058 72.0168 19.4317 71.309 18.9009C70.6013 18.37 69.6391 18.1046 68.4226 18.1046C67.0734 18.1046 66.056 18.4917 65.3704 19.2658C64.6847 20.0399 64.2645 20.9468 64.1097 21.9863L60.3275 20.9578Z" fill="#1D1D2D"/>
<path d="M84.8091 38.5747C83.0176 38.5747 81.6242 38.1213 80.6289 37.2145C79.6336 36.3077 79.1359 35.1022 79.1359 33.5982C79.1359 31.5412 79.9432 30.0815 81.5578 29.2189C83.1724 28.3563 85.7049 27.925 89.1553 27.925H90.4492V27.4273C90.4492 26.0339 90.1617 24.9833 89.5866 24.2755C89.0337 23.5456 88.1158 23.1807 86.8329 23.1807C85.4837 23.1807 84.4995 23.5899 83.8802 24.4082C83.2609 25.2266 82.9623 26.1666 82.9844 27.2283L79.534 26.432C79.6004 25.1934 79.9321 24.0986 80.5293 23.1475C81.1486 22.1743 82.0112 21.4113 83.1171 20.8583C84.223 20.3054 85.5169 20.0289 86.9988 20.0289C89.476 20.0289 91.3118 20.6261 92.5062 21.8204C93.7005 23.0148 94.2977 24.7511 94.2977 27.0292V33.93C94.2977 34.505 94.3862 34.9142 94.5631 35.1575C94.7401 35.4008 95.0718 35.5225 95.5584 35.5225C95.9344 35.5225 96.2883 35.4451 96.6201 35.2902L97.1509 37.9776C96.3989 38.2872 95.5142 38.442 94.4968 38.442C93.4793 38.442 92.6831 38.1877 92.108 37.679C91.5551 37.1702 91.2454 36.3961 91.1791 35.3566C91.1791 35.0912 91.2012 34.8258 91.2454 34.5603H91.1791C90.6261 35.8211 89.8078 36.8053 88.724 37.5131C87.6402 38.2208 86.3353 38.5747 84.8091 38.5747ZM83.0839 33.2664C83.0839 33.9521 83.3162 34.505 83.7807 34.9253C84.2672 35.3234 84.9308 35.5225 85.7713 35.5225C86.5454 35.5225 87.2974 35.3123 88.0273 34.8921C88.7572 34.4719 89.3433 33.8857 89.7857 33.1337C90.228 32.3817 90.4492 31.5191 90.4492 30.5459V30.2805H89.653C87.3085 30.2805 85.6275 30.5017 84.6101 30.9441C83.5927 31.3643 83.0839 32.1384 83.0839 33.2664Z" fill="#1D1D2D"/>
<path d="M99.5863 23.0812V15.0855H103.667V23.0812L102.871 31.0436H100.383L99.5863 23.0812ZM98.9891 36.186C98.9891 35.434 99.2214 34.8479 99.6858 34.4276C100.15 34.0074 100.803 33.7973 101.643 33.7973C102.484 33.7973 103.125 34.0074 103.568 34.4276C104.032 34.8479 104.264 35.434 104.264 36.186C104.264 36.938 104.032 37.5241 103.568 37.9444C103.125 38.3646 102.484 38.5747 101.643 38.5747C100.803 38.5747 100.15 38.3646 99.6858 37.9444C99.2214 37.5241 98.9891 36.938 98.9891 36.186Z" fill="#1D1D2D"/>
<path d="M122.852 26.5647L122.785 18.8013L117.742 18.6686L112.733 18.8013L112.666 26.5647L112.766 38.0771H108.32L108.42 26.5647L108.32 15.0855H127.198L127.065 26.5647L127.198 38.0771H122.752L122.852 26.5647Z" fill="#1D1D2D"/>
<path d="M138.591 38.5747C136.888 38.5747 135.384 38.1987 134.079 37.4467C132.796 36.6947 131.801 35.622 131.093 34.2286C130.407 32.813 130.064 31.1652 130.064 29.2852C130.064 27.4052 130.407 25.7685 131.093 24.3751C131.801 22.9816 132.796 21.9089 134.079 21.1569C135.362 20.4049 136.866 20.0289 138.591 20.0289C140.338 20.0289 141.853 20.4049 143.136 21.1569C144.441 21.9089 145.447 22.9816 146.155 24.3751C146.863 25.7685 147.217 27.4052 147.217 29.2852C147.217 31.1652 146.863 32.813 146.155 34.2286C145.447 35.622 144.441 36.6947 143.136 37.4467C141.831 38.1987 140.316 38.5747 138.591 38.5747ZM134.178 29.2852C134.178 31.1652 134.565 32.625 135.34 33.6646C136.136 34.7041 137.231 35.2239 138.624 35.2239C140.017 35.2239 141.112 34.7041 141.909 33.6646C142.705 32.625 143.103 31.1652 143.103 29.2852C143.103 27.4273 142.705 25.9897 141.909 24.9722C141.112 23.9327 140.017 23.4129 138.624 23.4129C137.231 23.4129 136.136 23.9327 135.34 24.9722C134.565 25.9897 134.178 27.4273 134.178 29.2852Z" fill="#1D1D2D"/>
<path d="M148.104 34.7594H149.364C149.917 34.7594 150.304 34.5161 150.526 34.0295C150.747 33.5208 150.891 32.6693 150.957 31.4749C151.178 28.4226 151.311 24.7621 151.355 20.4934H165.223L165.123 28.7212L165.19 34.7594H167.678V42.3237H163.896V38.0771H151.886V42.3237H148.104V34.7594ZM161.175 34.7594L161.209 29.2852L161.175 23.8774L158.223 23.811L155.137 23.8774C155.071 26.62 154.949 29.252 154.772 31.7735C154.706 32.4813 154.584 33.0674 154.407 33.5319C154.253 33.9963 154.02 34.3834 153.711 34.693V34.7594H161.175Z" fill="#1D1D2D"/>
<path d="M174.879 38.5747C173.087 38.5747 171.694 38.1213 170.699 37.2145C169.703 36.3077 169.206 35.1022 169.206 33.5982C169.206 31.5412 170.013 30.0815 171.628 29.2189C173.242 28.3563 175.775 27.925 179.225 27.925H180.519V27.4273C180.519 26.0339 180.232 24.9833 179.656 24.2755C179.104 23.5456 178.186 23.1807 176.903 23.1807C175.554 23.1807 174.569 23.5899 173.95 24.4082C173.331 25.2266 173.032 26.1666 173.054 27.2283L169.604 26.432C169.67 25.1934 170.002 24.0986 170.599 23.1475C171.219 22.1743 172.081 21.4113 173.187 20.8583C174.293 20.3054 175.587 20.0289 177.069 20.0289C179.546 20.0289 181.382 20.6261 182.576 21.8204C183.77 23.0148 184.368 24.7511 184.368 27.0292V33.93C184.368 34.505 184.456 34.9142 184.633 35.1575C184.81 35.4008 185.142 35.5225 185.628 35.5225C186.004 35.5225 186.358 35.4451 186.69 35.2902L187.221 37.9776C186.469 38.2872 185.584 38.442 184.567 38.442C183.549 38.442 182.753 38.1877 182.178 37.679C181.625 37.1702 181.315 36.3961 181.249 35.3566C181.249 35.0912 181.271 34.8258 181.315 34.5603H181.249C180.696 35.8211 179.878 36.8053 178.794 37.5131C177.71 38.2208 176.405 38.5747 174.879 38.5747ZM173.154 33.2664C173.154 33.9521 173.386 34.505 173.851 34.9253C174.337 35.3234 175.001 35.5225 175.841 35.5225C176.615 35.5225 177.367 35.3123 178.097 34.8921C178.827 34.4719 179.413 33.8857 179.856 33.1337C180.298 32.3817 180.519 31.5191 180.519 30.5459V30.2805H179.723C177.378 30.2805 175.697 30.5017 174.68 30.9441C173.663 31.3643 173.154 32.1384 173.154 33.2664Z" fill="#1D1D2D"/>
<path d="M188.993 30.8114L188.893 20.4934H193.073L193.04 22.9484H193.107C193.549 22.1522 194.235 21.4666 195.164 20.8915C196.115 20.3164 197.221 20.0289 198.481 20.0289C200.715 20.0289 202.44 20.8141 203.657 22.3844C204.895 23.9548 205.515 26.244 205.515 29.252C205.515 32.2601 204.895 34.5714 203.657 36.186C202.44 37.7785 200.715 38.5747 198.481 38.5747C197.221 38.5747 196.115 38.2761 195.164 37.679C194.235 37.0818 193.538 36.374 193.073 35.5556H193.007L193.073 43.3854H188.893L188.993 30.8114ZM193.007 29.3184C193.007 31.4196 193.416 32.9236 194.235 33.8304C195.075 34.7373 196.07 35.1907 197.22 35.1907C198.57 35.1907 199.598 34.682 200.306 33.6646C201.036 32.625 201.401 31.1542 201.401 29.252C201.401 27.3499 201.036 25.9012 200.306 24.9059C199.598 23.9106 198.57 23.4129 197.22 23.4129C196.004 23.4129 194.998 23.9106 194.201 24.9059C193.405 25.9012 193.007 27.372 193.007 29.3184Z" fill="#1D1D2D"/>
<path d="M208.303 29.1525L208.203 20.4934H212.317L212.251 27.4273H214.374L218.621 20.4934H223.299L217.459 28.9866L224.194 38.0771H219.45L214.407 30.8445H212.251L212.317 38.0771H208.203L208.303 29.1525Z" fill="#1D1D2D"/>
<path d="M233.099 38.5747C231.396 38.5747 229.892 38.1987 228.587 37.4467C227.305 36.6947 226.309 35.622 225.601 34.2286C224.916 32.813 224.573 31.1652 224.573 29.2852C224.573 27.4052 224.916 25.7685 225.601 24.3751C226.309 22.9816 227.305 21.9089 228.587 21.1569C229.87 20.4049 231.374 20.0289 233.099 20.0289C234.847 20.0289 236.362 20.4049 237.645 21.1569C238.95 21.9089 239.956 22.9816 240.664 24.3751C241.372 25.7685 241.725 27.4052 241.725 29.2852C241.725 31.1652 241.372 32.813 240.664 34.2286C239.956 35.622 238.95 36.6947 237.645 37.4467C236.34 38.1987 234.825 38.5747 233.099 38.5747ZM228.687 29.2852C228.687 31.1652 229.074 32.625 229.848 33.6646C230.644 34.7041 231.739 35.2239 233.133 35.2239C234.526 35.2239 235.621 34.7041 236.417 33.6646C237.213 32.625 237.611 31.1652 237.611 29.2852C237.611 27.4273 237.213 25.9897 236.417 24.9722C235.621 23.9327 234.526 23.4129 233.133 23.4129C231.739 23.4129 230.644 23.9327 229.848 24.9722C229.074 25.9897 228.687 27.4273 228.687 29.2852Z" fill="#1D1D2D"/>
<path d="M244.525 29.5838L244.425 20.4934H249.369L252.222 27.9582L254.179 33.2333H254.246L256.17 27.9582L259.023 20.4934H264L263.933 29.0198L264 38.0771H260.251L260.35 30.745V25.4035H260.284L258.194 31.1763L255.573 38.0771H252.819L250.198 31.1763L248.141 25.4035H248.042L248.075 30.745L248.141 38.0771H244.425L244.525 29.5838Z" fill="#1D1D2D"/>
<defs>
<linearGradient id="paint0_linear_3752_15106" x1="43.5332" y1="39.8562" x2="10.2497" y2="27.8456" gradientUnits="userSpaceOnUse">
<stop stop-color="#4BD7EB"/>
<stop offset="1" stop-color="#003DF6"/>
</linearGradient>
</defs>
</svg>
